<svg xmlns="http://www.w3.org/2000/svg" xmlns:xlink="http://www.w3.org/1999/xlink" viewBox="0 0 449.91 260.99"><defs><style>.cls-1{fill:url(#linear-gradient);}.cls-2,.cls-3{fill:#fff;}.cls-3{fill-rule:evenodd;}.cls-4{fill:url(#linear-gradient-2);}</style><linearGradient id="linear-gradient" x1="143.16" y1="130.49" x2="449.91" y2="130.49" gradientUnits="userSpaceOnUse"><stop offset="0" stop-color="#9000ff"/><stop offset="1" stop-color="#2d14f9"/></linearGradient><linearGradient id="linear-gradient-2" x1="0" y1="135.69" x2="216.93" y2="135.69" xlink:href="#linear-gradient"/></defs><g id="Layer_2" data-name="Layer 2"><g id="Layer_1-2" data-name="Layer 1"><path class="cls-1" d="M449.91,261h-48c-3.94-17-20.83-30.75-37.82-30.75S336.56,244,340.39,261h-39.8L174.19,18.17C167.56,4.37,158,1.51,143.67,1.35l-.51-.07V0h130a67.24,67.24,0,0,1,59.62,36.17Z"/><path class="cls-2" d="M338.5,124.12h3.39l7,13.58-3.32,0-1.7-3.29h-3.45l1.7,3.3-6.9,0,3.52,6.82h-3.42l-1.73-3.36-10.39,0,.05,0-1.78-3.44,0,0,6.84,0-3.54-6.88h-3.37l-1.75-3.39v0H323l-5.26-10.22h-3.29l-1.77-3.43,10.25,0,0,0,1.8,3.44H321.3l1.75,3.39h3.38l1.78,3.44h-3.4l1.77,3.44H330l1.71,3.31,10.31,0-3.49-6.77,0,0Z"/><path class="cls-2" d="M248.6,76.13l8.73,16.94,17.08.06-8.73-16.94-17.08-.06Zm18.76-3.34,12.26,23.8-24-.09L243.41,72.71Z"/><path class="cls-2" d="M322.6,93.33l-8.73-16.94-17.09-.06,8.73,16.94,17.09.06Zm-31-20.45,23.95.08,12.24,23.78-23.95-.09L291.58,72.88Z"/><path class="cls-2" d="M281.91,140.87l17.09.06-8.73-17-17.09,0,8.73,16.94Zm22.3,3.51-23.95-.09L268,120.53l24,.09,12.24,23.76Z"/><path class="cls-2" d="M291.62,86.51l3.41,0,7,13.56-6.82,0,5.3,10.28,0,0H297l-3.53-6.84-3.42,0-1.75-3.39h-3.43l.05,0-7-13.65h3.44l0,0,5.24,10.17H290l-1.73-3.35,3.5,0,1.73,3.36h3.36l-1.72-3.33-3.39,0L290,89.91h3.44l-1.77-3.44v0Z"/><path class="cls-2" d="M266,103.39l3.49,0-.05,0,1.73,3.36h3.47l-1.73-3.36v0h3.39l5.25,10.19h-3.34l1.74,3.38H276.5l-3.45-6.7-3.46,0,1.71,3.31h-3.47l1.76,3.4H266.2l-8.73-17,6.83,0c.58,1.12,1.16,2.24,1.73,3.37h-3.39l1.71,3.32,3.37,0L266,103.39Z"/><path class="cls-2" d="M307.43,117.16l1.75,3.4-10.27,0,1.73,3.35h-3.46l-5.24-10.17v0l10.35,0,0,0,1.77,3.44h3.47l-.05,0Z"/><path class="cls-2" d="M323.19,141.07l1.73,3.36-17.14-.06-3.44-6.68h3.34l1.68,3.26h3.46l-1.69-3.28,3.42,0,1.74,3.37,6.95,0-.05,0Z"/><path class="cls-2" d="M316.25,134.23h-3.41l-3.52-6.83-3.49,0,0,0-1.75-3.4,10.28,0-1.73-3.36,3.46,0,3.48,6.76v0l-6.91,0,3.53,6.86v0Z"/><path class="cls-2" d="M281.34,86.44,279.58,83l-3.39,0-3.5-6.8h3.36l-1.76-3.4h3.39l7,13.58h-3.38l0,0Z"/><path class="cls-2" d="M328,103.64h3.38l8.77,17h-3.38l0,0L335,117.22h-3.39l-1.75-3.39h3.4L328,103.61v0Z"/><path class="cls-2" d="M309.09,107l-3.48-6.77,10.34,0,1.7,3.31v0h-3.48L316,107l-6.91,0,0,0Z"/><path class="cls-2" d="M324.62,110.44l-1.74-3.38-3.4,0-1.82-3.52v0H321l-1.7-3.3,6.9,0,1.73,3.36v0l-3.49,0,3.51,6.83h-3.42l.05,0Z"/><path class="cls-2" d="M288.14,79.57h-3.4l-3.45-6.69,6.73,0,1.7,3.31-3.35,0c.61,1.19,1.18,2.31,1.76,3.43v0Z"/><path class="cls-2" d="M285,106.89l-1.74-3.39h-3.4l-1.76-3.44,6.83,0-.05,0,3.52,6.83-3.45,0,.05,0Z"/><path class="cls-2" d="M309.05,106.94l1.76,3.41-6.89,0,.05,0L302.21,107l6.88,0,0,0Z"/><path class="cls-2" d="M336.73,120.67l1.77,3.45,0,0-6.91,0-1.76-3.41,6.92,0,0,0Z"/><path class="cls-2" d="M288.47,113.69l1.73,3.36h-3.37l-1.72-3.33h3.4l0,0Z"/><path class="cls-2" d="M303.92,110.33l1.77,3.45,0,0h-3.47l0,0-1.77-3.45,0,0H304l-.05,0Z"/><path class="cls-2" d="M305.69,113.78h3.38l1.75,3.38h-3.39l.05,0-1.77-3.44,0,0Z"/><path class="cls-2" d="M288.51,113.72l-1.77-3.44v0h3.44l1.76,3.41v0h-3.47l0,0Z"/><path class="cls-2" d="M322.93,113.84l-1.75-3.41h3.44l-.05,0,1.76,3.41h-3.44l0,0Z"/><path class="cls-2" d="M286.74,110.28h-3.38l-1.74-3.39H285l-.05,0,1.78,3.45v0Z"/><path class="cls-2" d="M269.48,103.43l-1.73-3.35h3.41l1.73,3.36v0h-3.47l.05,0Z"/><path class="cls-2" d="M305.83,127.37l1.75,3.4h-3.46l0,0-1.75-3.4h3.46l0,0Z"/><path class="cls-2" d="M304.12,130.76l1.73,3.37H302.5l-1.72-3.34h3.38l0,0Z"/><path class="cls-2" d="M321.46,137.66l-3.45,0-1.76-3.41v0h3.44l1.76,3.41,0,0Z"/><path class="cls-2" d="M289.86,83l1.76,3.48v0h-3.35l-1.76-3.42h3.38l0,0Z"/><path class="cls-2" d="M289.9,83.06c-.58-1.16-1.17-2.32-1.76-3.48v0h3.36L293.25,83h-3.39l0,0Z"/><path class="cls-2" d="M349,144.53h-3.3l-1.7-3.3,3.31,0,1.69,3.29Z"/><path class="cls-2" d="M326.42,120.66l-1.77-3.44,3.47,0,1.77,3.44-3.47,0Z"/><path class="cls-2" d="M269.21,89.74l-10.2,0L253.8,79.59l10.2,0,5.21,10.11Z"/><path class="cls-2" d="M307.17,89.84,302,79.74l10.19,0,5.2,10.11-10.19,0Z"/><path class="cls-2" d="M288.62,127.39l5.21,10.11-10.21,0-5.21-10.1,10.21,0Z"/><path class="cls-3" d="M324.73,75.53a16.57,16.57,0,0,0-15.85-10.35c-11-.32-44.89-.16-66.84-.24-2.79,0-4.91,1.07-5.89,3-1.33,2.62.09,6,.67,7.29,3.42,7.61,5.13,11.41,34.25,66.49a17.79,17.79,0,0,0,15.84,10.36c7.85.51,43.51.15,66.84.23,2.8,0,4.92-1.07,5.89-3s.74-4.55-.67-7.29Zm-5.15,0a10.32,10.32,0,0,0-3.5-3.73,8.71,8.71,0,0,0-4.6-1.56L244.64,70a3.12,3.12,0,0,0-3,1.53,4.15,4.15,0,0,0,.34,3.73l34.24,66.49a10.24,10.24,0,0,0,3.5,3.73,8.73,8.73,0,0,0,4.6,1.56l66.85.24a3.16,3.16,0,0,0,3-1.54,4.14,4.14,0,0,0-.35-3.72Z"/><path class="cls-4" d="M124.82,21,0,261H47.81c3.86-17,20.81-30.76,37.81-30.76S113.19,244,109.33,261h39.93l67.67-130L159.83,21a19.74,19.74,0,0,0-35,0Z"/></g></g></svg>